<?xml version="1.0" encoding="UTF-8" standalone="no"?>
<svg
   width="687.91608"
   height="351.76913"
   viewBox="0 0 687.91608 351.76913"
   fill="none"
   version="1.1"
   id="svg432"
   sodipodi:docname="76a2ae00fcf9bb12a27dee4ab7f05482.svg"
   xmlns:inkscape="http://www.inkscape.org/namespaces/inkscape"
   xmlns:sodipodi="http://sodipodi.sourceforge.net/DTD/sodipodi-0.dtd"
   xmlns="http://www.w3.org/2000/svg"
   xmlns:svg="http://www.w3.org/2000/svg">
  <defs
     id="defs436" />
  <sodipodi:namedview
     id="namedview434"
     pagecolor="#ffffff"
     bordercolor="#666666"
     borderopacity="1.0"
     inkscape:pageshadow="2"
     inkscape:pageopacity="0.0"
     inkscape:pagecheckerboard="0" />
  <path
     d="M 290.51423,351.76914 H 17.214634 c -11.2999898,-10.1 -18.19999878,-21.8 -17.09999878,-32.6 2.29999898,-23.3 38.99999878,-26.7 74.59999878,-9.9 l 7,3.5 c 1.1799,-4.286 3.073,-8.343 5.6,-12 17.799596,-26.1 57.999596,-28.6 83.999596,-9.5 2.866,2.095 5.543,4.438 8,7 3.496,-4.833 7.484,-9.291 11.9,-13.3 24.1,-21.8 52.7,-26.5 63.6,-13.1 9.6,11.8 2.2,34.5 -16,52.4 0,0 53.8,1.3 51.7,27.5 z"
     fill="#404eed"
     id="path2" />
  <path
     d="m 628.51523,351.26914 c -22.1,-45.6 -34.5,-100.2 -34.5,-100.2 l -1,-5.3 -44.5,5.3 v 100.2 z"
     fill="#2835bd"
     id="path4" />
  <path
     d="m 618.91523,351.26914 c -19.4,-40 -30.2,-87.9 -30.2,-87.9 l -2.6,-13.4 -37.3,13.4 v 87.9 z"
     fill="#000000"
     id="path6" />
  <path
     d="m 625.91523,217.86914 h -16.2 v 133.46 h 16.2 z"
     fill="#2835bd"
     id="path8" />
  <path
     d="m 625.91523,235.16914 c -2.426,1.105 -5.117,1.494 -7.756,1.122 -2.64,-0.372 -5.118,-1.49 -7.144,-3.222 l -1.3,-1.1 v -6 l 16.2,-3.1 z"
     fill="#000000"
     id="path10" />
  <path
     d="m 601.11523,351.26914 c 11.1,-2.7 26.2,-17.4 26.2,-17.4 0,0 5.3,11.4 8.4,17.4 h 11.2 c 1.209,0.007 2.406,-0.242 3.513,-0.729 1.107,-0.487 2.098,-1.203 2.91,-2.099 0.811,-0.897 1.425,-1.954 1.8,-3.104 0.375,-1.149 0.504,-2.365 0.377,-3.568 -0.5,-4.9 -2.8,-10.4 -6.3,-18.4 -5.9,-13.3 -7.8,-20.3 -19.3,-20.3 h -10.4 l -24,-10.6 c -15.4,8.1 -26,12.8 -35.1,18.2 -13.4,8.2 -24,24.4 -13.6,40.6 z"
     fill="#ffc619"
     id="path12" />
  <path
     d="m 432.11523,263.36914 v 87.9 h 121.8 c 19.4,-40 30.2,-87.9 30.2,-87.9 l 2.9,-12.3 z"
     fill="#2835bd"
     id="path14" />
  <path
     d="m 556.31523,266.06914 -124.2,11.6 v 73.6 h 92.9 c 9,-20.5 31.3,-85.2 31.3,-85.2 z"
     fill="#000000"
     id="path16" />
  <path
     d="m 539.81523,344.56914 c 10.245,-15.842 18.38,-32.953 24.2,-50.9"
     stroke="#000000"
     stroke-width="2"
     stroke-linecap="round"
     stroke-linejoin="round"
     id="path18" />
  <path
     d="m 525.31523,332.36914 c -5.145,0 -10.08,2.044 -13.718,5.682 -3.638,3.638 -5.682,8.573 -5.682,13.718 h 38.8 c 0,-5.145 -2.044,-10.08 -5.682,-13.718 -3.638,-3.638 -8.573,-5.682 -13.718,-5.682 z"
     fill="#404eed"
     id="path20" />
  <path
     d="m 552.91523,351.26914 c 19.4,-40 30.3,-87.9 30.3,-87.9 z"
     fill="#2835bd"
     id="path22" />
  <path
     d="m 590.41523,351.16914 c -0.1,-0.2 -7,-17.6 -10.6,-28.8 l -0.2,-0.7 c -2.4,-7.6 -4.4,-13.7 -4.1,-19.1 l -1.7,0.9 c 0,5.4 1.9,11.4 4.3,18.7 l 0.2,0.7 c 3.3,10.2 9.2,25.5 10.4,28.4 h 1.7 z"
     fill="#000000"
     id="path24" />
  <path
     d="m 652.91523,348.86914 c 0.617,-0.603 1.083,-1.343 1.361,-2.159 0.277,-0.817 0.36,-1.687 0.239,-2.541 -0.7,-7.1 -4.4,-15.6 -8.3,-24.4 l -4,-9.4 -1.5,0.6 c 1.3,3.2 2.7,6.3 4,9.4 4.7,10.7 9.2,21 8.2,28.5 z"
     fill="#ffffff"
     id="path26" />
  <path
     d="m 619.51523,322.76914 c -1.9,7.8 -4.6,17.5 -8.1,28.5 h -21 c 0,0 -6.8,-17.5 -10.5,-28.8 -3.7,-11.3 -6.4,-19.4 -2.7,-26.9 3.7,-7.5 9.5,-8.1 18.3,-3.1 l -1.3,14.2 6.7,19 3.1,-10.1 c 6.6,-4.3 14.9,-1.9 15.5,7.2 z"
     fill="#ffc619"
     id="path28" />
  <path
     d="m 592.41523,344.96914 -1.7,-4.9 c -3.7,-10.9 -6.9,-20.2 -9.1,-28.7 -1.8,-7 -3.3,-15.3 -2.4,-19 -0.735,0.896 -1.372,1.868 -1.9,2.9 0,5.4 1.8,12.9 2.7,16.5 2.3,8.6 5.5,17.9 9.2,28.8 l 1.7,5 c 0.733,2.067 1.433,3.967 2.1,5.7 h 1.8 c -0.8,-1.8 -1.5,-3.8 -2.4,-6.3 z"
     fill="#ffffff"
     id="path30" />
  <path
     d="m 607.61523,351.26914 c 2.3,-7.7 5.6,-19 9.9,-33.6 0.03,-0.105 0.038,-0.215 0.023,-0.323 -0.014,-0.109 -0.05,-0.213 -0.107,-0.307 -0.056,-0.093 -0.131,-0.175 -0.22,-0.238 -0.088,-0.064 -0.189,-0.109 -0.296,-0.132 -0.097,-0.048 -0.204,-0.073 -0.312,-0.073 -0.109,0 -0.216,0.025 -0.313,0.074 -0.097,0.048 -0.181,0.119 -0.246,0.205 -0.065,0.087 -0.109,0.188 -0.129,0.294 -4.4,14.9 -7.7,26.4 -10,34.1 z"
     fill="#ffffff"
     id="path32" />
  <path
     d="m 615.71523,261.26914 c -12.6,-1.8 -17.4,-0.9 -22.1,9.7 -4.7,10.6 -2.3,19.6 5.5,31 7.8,11.4 27,9.3 34.3,6.6 7.3,-2.7 13.7,-10 17.3,-20.3 3.6,-10.3 2.5,-21.6 -2.9,-27.8 -5.4,-6.2 -14.5,-11.3 -22.7,-8.7 -8.2,2.6 -9.4,9.5 -9.4,9.5 z"
     fill="#de3a93"
     id="path34" />
  <path
     d="m 621.81523,276.16914 -3.8,-1"
     stroke="#000000"
     stroke-width="2"
     stroke-linecap="round"
     stroke-linejoin="round"
     id="path36" />
  <path
     d="m 622.01523,277.76914 -3.9,0.5"
     stroke="#000000"
     stroke-width="2"
     stroke-linecap="round"
     stroke-linejoin="round"
     id="path38" />
  <path
     d="m 649.61523,275.86914 3,-2"
     stroke="#000000"
     stroke-width="2"
     stroke-linecap="round"
     stroke-linejoin="round"
     id="path40" />
  <path
     d="m 649.41523,277.56914 3.1,-0.5"
     stroke="#000000"
     stroke-width="2"
     stroke-linecap="round"
     stroke-linejoin="round"
     id="path42" />
  <path
     d="m 611.61523,251.06914 c -2.1,0 -3.7,1.4 -3.8,2.4 -0.1,1 3.7,4.2 8.6,10.3 l 1.3,-0.5 c -4.6,-11.8 -4,-12.3 -6.1,-12.2 z"
     fill="#000000"
     id="path44" />
  <path
     d="m 621.31523,260.36914 c -3.8,2.4 -8.2,5.7 -8.2,5.7"
     stroke="#000000"
     stroke-width="2"
     stroke-linecap="round"
     stroke-linejoin="round"
     id="path46" />
  <path
     d="m 619.51523,322.76914 c 1.2,-5.1 2.1,-9.4 2.6,-12.7 1.4,-8.6 -1.2,-10 -5,-11.1 -3.8,-1.1 -6.5,-3.2 -8.3,-9.7 -1.8,-6.5 -2.9,-6.4 -5.1,-5.3 -2.4,1.299 -4.457,3.15 -6,5.4 -1.2,2.1 -1,4.5 1.3,10.4 1.522,3.69 3.967,6.927 7.1,9.4 l -2.1,6.4 c 7.7,-0.3 12.3,0.7 15.5,7.2 z"
     fill="#ff78b9"
     id="path48" />
  <path
     d="m 632.01523,318.76914 c -1.1,-4.9 -2.5,-10.2 0,-11.6 2.5,-1.4 10.2,-5 14.4,-14.1 0.088,-0.226 0.22,-0.433 0.39,-0.607 0.169,-0.174 0.372,-0.312 0.597,-0.405 0.224,-0.094 0.465,-0.141 0.708,-0.139 0.242,0.003 0.482,0.054 0.705,0.151 h 0.2 c 0.182,0.066 0.349,0.168 0.49,0.302 0.141,0.133 0.252,0.294 0.327,0.472 0.075,0.179 0.113,0.371 0.11,0.565 -0.003,0.194 -0.046,0.385 -0.127,0.561 -2.046,4.35 -4.489,8.501 -7.3,12.4 0.583,2.345 1.318,4.65 2.2,6.9 -4.6,2.3 -12.7,5.5 -12.7,5.5 z"
     fill="#ff78b9"
     id="path50" />
  <path
     d="m 607.41523,302.76914 c 0.148,-0.165 0.229,-0.378 0.229,-0.6 0,-0.221 -0.081,-0.435 -0.229,-0.6 -1.495,-1.567 -2.834,-3.275 -4,-5.1 -1.9,-3.3 -3.7,-9.2 -2.4,-10.7 l -1.4,1.3 c -0.222,0.24 -0.391,0.525 -0.494,0.835 -0.104,0.311 -0.14,0.64 -0.106,0.965 0.529,2.947 1.543,5.785 3,8.4 1.209,1.972 2.617,3.814 4.2,5.5 l 0.6,0.2 z"
     fill="#000000"
     id="path52" />
  <path
     d="m 606.91523,309.36914 c 2.885,-0.356 5.794,-0.489 8.7,-0.4"
     stroke="#000000"
     stroke-width="2"
     stroke-linecap="round"
     stroke-linejoin="round"
     id="path54" />
  <path
     d="m 597.41523,336.56914 6.3,-20"
     stroke="#000000"
     stroke-width="2"
     stroke-linecap="round"
     stroke-linejoin="round"
     id="path56" />
  <path
     d="m 600.91523,325.66914 -6.1,-17.5"
     stroke="#000000"
     stroke-width="2"
     stroke-linecap="round"
     stroke-linejoin="round"
     id="path58" />
  <path
     d="m 632.11523,319.56914 c 1.8,9.7 5.7,23.3 5.7,23.3"
     stroke="#000000"
     stroke-width="2"
     stroke-linecap="round"
     stroke-linejoin="round"
     id="path60" />
  <path
     d="m 551.01523,325.86914 c -3.474,0 -6.806,1.38 -9.263,3.837 -2.457,2.457 -3.837,5.789 -3.837,9.263 v 12.8 h 26.1 v -12.8 c 0,-3.457 -1.366,-6.774 -3.801,-9.228 -2.436,-2.454 -5.742,-3.845 -9.199,-3.872 z"
     fill="#404eed"
     id="path62" />
  <path
     d="m 564.01523,338.96914 c -1.689,-0.013 -3.365,0.308 -4.929,0.946 -1.565,0.637 -2.987,1.578 -4.187,2.768 -1.199,1.19 -2.151,2.605 -2.8,4.165 -0.65,1.559 -0.984,3.232 -0.984,4.921 h 25.7 c 0,-3.395 -1.349,-6.65 -3.749,-9.051 -2.4,-2.4 -5.656,-3.749 -9.051,-3.749 z"
     fill="#404eed"
     id="path64" />
  <path
     d="m 604.11523,227.36914 19.7,-3.1"
     stroke="#000000"
     stroke-width="8"
     stroke-linecap="round"
     stroke-linejoin="round"
     id="path66" />
  <path
     d="m 645.31523,263.96914 0.7,1.1"
     stroke="#ffa8d2"
     stroke-width="3"
     stroke-linecap="round"
     stroke-linejoin="round"
     id="path68" />
  <path
     d="m 635.41523,256.66914 c 2.589,0.776 4.978,2.107 7,3.9"
     stroke="#ffa8d2"
     stroke-width="3"
     stroke-linecap="round"
     stroke-linejoin="round"
     id="path70" />
  <path
     d="m 623.31523,224.36914 c 16.7,-2.8 43.5,-9 57.4,-12.7"
     stroke="#2835bd"
     stroke-width="8"
     stroke-linecap="round"
     stroke-linejoin="round"
     id="path72" />
  <path
     d="m 675.71523,214.36914 5.3,24.6"
     stroke="#000000"
     stroke-width="2"
     stroke-linecap="round"
     stroke-linejoin="round"
     id="path74" />
  <path
     d="m 686.01523,238.16914 v -3.2 h -20.6 v 3.3 c -0.042,0.457 -0.178,0.899 -0.4,1.3 -1.032,1.502 -1.589,3.278 -1.6,5.1 v 13.1 c 0.002,2.214 0.802,4.352 2.253,6.024 1.451,1.671 3.456,2.763 5.647,3.076 2.953,0.4 5.947,0.4 8.9,0 2.164,-0.337 4.133,-1.442 5.547,-3.114 1.415,-1.671 2.179,-3.796 2.153,-5.986 v -13.1 c 0.025,-1.812 -0.498,-3.59 -1.5,-5.1 -0.281,-0.411 -0.422,-0.902 -0.4,-1.4 z"
     fill="#8cd9ff"
     id="path76" />
  <path
     d="m 684.11523,239.56914 v -4.1 h -16.9 v 4.1 c 0.005,0.806 -0.202,1.599 -0.6,2.3 -0.798,1.18 -1.216,2.576 -1.2,4 v 11.2 c 0.002,1.86 0.668,3.657 1.878,5.069 1.21,1.412 2.885,2.345 4.722,2.631 2.391,0.3 4.809,0.3 7.2,0 1.864,-0.244 3.575,-1.162 4.809,-2.58 1.234,-1.419 1.907,-3.24 1.891,-5.12 v -11.2 c -0.009,-1.407 -0.388,-2.786 -1.1,-4 -0.425,-0.695 -0.666,-1.486 -0.7,-2.3 z"
     fill="#5865f2"
     id="path78" />
  <path
     d="m 665.41523,236.56914 c 0,1.4 4.6,2.5 10.3,2.5 5.7,0 10.3,-1.1 10.3,-2.5 l -10.3,-4.1 z"
     fill="#8cd9ff"
     id="path80" />
  <path
     d="m 664.81523,235.76914 c -0.088,0.15 -0.145,0.317 -0.168,0.49 -0.022,0.173 -0.01,0.348 0.037,0.516 0.046,0.168 0.126,0.325 0.235,0.461 0.108,0.137 0.243,0.25 0.396,0.333 1.7,1 5.7,1.7 10.4,1.7 4.7,0 8.7,-0.7 10.4,-1.7 0.29,-0.186 0.502,-0.472 0.594,-0.804 0.092,-0.332 0.059,-0.687 -0.094,-0.996 l -10.9,-21.4 z"
     stroke="#000000"
     stroke-width="2"
     stroke-linecap="round"
     stroke-linejoin="round"
     id="path82" />
  <path
     d="m 674.71523,257.86914 -3.1,-0.7 c -0.299,-0.108 -0.548,-0.321 -0.7,-0.6 -0.142,-0.279 -0.169,-0.603 -0.076,-0.902 0.094,-0.299 0.3,-0.549 0.576,-0.698 0.15,-0.088 0.317,-0.145 0.49,-0.168 0.172,-0.022 0.348,-0.01 0.516,0.037 0.168,0.046 0.325,0.126 0.461,0.235 0.136,0.108 0.25,0.243 0.333,0.396 z"
     fill="#ffffff"
     id="path84" />
  <path
     d="m 674.71523,257.86914 -0.2,-3.1 c -0.006,-0.147 0.018,-0.293 0.069,-0.43 0.052,-0.138 0.13,-0.263 0.231,-0.37 0.085,-0.13 0.2,-0.239 0.334,-0.317 0.135,-0.079 0.286,-0.124 0.441,-0.134 0.155,-0.01 0.311,0.017 0.454,0.078 0.143,0.061 0.27,0.154 0.371,0.273 0.261,0.215 0.428,0.523 0.465,0.86 0.037,0.336 -0.058,0.673 -0.265,0.94 z"
     fill="#ffffff"
     id="path86" />
  <path
     d="m 675.31523,260.76914 c -1.7,0.5 -3.3,0 -3.7,-1.1 -0.4,-1.1 0.2,-1.7 1.8,-2.1 0.698,-0.18 1.37,-0.449 2,-0.8 1.3,-0.7 2,0.1 2.3,1 0.3,0.9 -0.7,2.4 -2.4,3 z"
     fill="#121b80"
     id="path88" />
  <path
     d="m 672.25123,257.74714 -1.2,-0.021 c -0.828,-0.014 -1.512,0.645 -1.526,1.474 l -0.002,0.09 c -0.014,0.828 0.646,1.511 1.474,1.526 l 1.2,0.021 c 0.828,0.014 1.511,-0.646 1.526,-1.474 l 0.001,-0.09 c 0.015,-0.828 -0.645,-1.511 -1.473,-1.526 z"
     fill="#ffe75c"
     id="path90" />
  <path
     d="m 677.91523,246.06914 2.8,-1.5 c 0.221,-0.189 0.392,-0.43 0.5,-0.7 0.046,-0.151 0.062,-0.31 0.047,-0.467 -0.015,-0.157 -0.061,-0.31 -0.136,-0.449 -0.074,-0.139 -0.175,-0.263 -0.297,-0.363 -0.122,-0.1 -0.263,-0.175 -0.414,-0.221 -0.332,-0.092 -0.686,-0.049 -0.986,0.119 -0.3,0.169 -0.521,0.45 -0.614,0.781 z"
     fill="#ffffff"
     id="path92" />
  <path
     d="m 677.91523,246.06914 -0.5,-3.1 c -0.107,-0.3 -0.277,-0.573 -0.5,-0.8 -0.276,-0.147 -0.594,-0.197 -0.902,-0.143 -0.308,0.054 -0.589,0.21 -0.798,0.443 -0.192,0.307 -0.257,0.676 -0.183,1.031 0.075,0.354 0.284,0.666 0.583,0.869 z"
     fill="#ffffff"
     id="path94" />
  <path
     d="m 678.71523,245.66914 c 1.4,1 2.1,2.6 1.4,3.5 -0.7,0.9 -1.5,1 -2.8,-0.1 -0.547,-0.446 -1.153,-0.816 -1.8,-1.1 -0.247,-0.061 -0.472,-0.188 -0.653,-0.368 -0.18,-0.179 -0.307,-0.405 -0.369,-0.651 -0.062,-0.247 -0.055,-0.506 0.019,-0.749 0.075,-0.243 0.214,-0.462 0.403,-0.632 0.6,-1 2.4,-0.9 3.8,0.1 z"
     fill="#121b80"
     id="path96" />
  <path
     d="m 678.02023,249.26714 0.707,0.97 c 0.488,0.669 1.426,0.816 2.096,0.328 l 0.072,-0.053 c 0.67,-0.488 0.817,-1.427 0.329,-2.096 l -0.707,-0.97 c -0.489,-0.669 -1.427,-0.816 -2.096,-0.328 l -0.073,0.053 c -0.669,0.488 -0.816,1.427 -0.328,2.096 z"
     fill="#ffe75c"
     id="path98" />
  <path
     d="m 675.71523,237.46914 c 5.689,0 10.3,-1.119 10.3,-2.5 0,-1.381 -4.611,-2.5 -10.3,-2.5 -5.689,0 -10.3,1.119 -10.3,2.5 0,1.381 4.611,2.5 10.3,2.5 z"
     fill="#8cd9ff"
     id="path100" />
  <path
     d="m 686.11523,234.96914 h -20.7 v 1.42 h 20.7 z"
     fill="#8cd9ff"
     id="path102" />
  <path
     d="m 679.91523,235.76914 c -0.5,0.1 -0.9,0.4 -0.9,0.9 0.012,0.106 0.046,0.207 0.098,0.3 0.052,0.092 0.122,0.173 0.205,0.239 0.084,0.065 0.18,0.113 0.282,0.14 0.103,0.028 0.21,0.035 0.315,0.021 l 1.7,-0.3 c 0.225,-0.038 0.432,-0.145 0.593,-0.306 0.162,-0.162 0.269,-0.369 0.307,-0.594 -0.01,-0.103 -0.043,-0.202 -0.097,-0.291 -0.053,-0.088 -0.125,-0.164 -0.211,-0.222 -0.086,-0.057 -0.184,-0.094 -0.286,-0.11 -0.103,-0.015 -0.207,-0.007 -0.306,0.023 z"
     fill="#ffffff"
     id="path104" />
  <path
     d="m 675.71523,214.36914 -5.3,24.6"
     stroke="#000000"
     stroke-width="2"
     stroke-linecap="round"
     stroke-linejoin="round"
     id="path106" />
  <path
     d="m 676.51523,216.06914 -2.6,-5.6"
     stroke="#000000"
     stroke-width="2"
     stroke-linecap="round"
     stroke-linejoin="round"
     id="path108" />
  <path
     d="m 675.91523,216.36914 0.3,-6.4"
     stroke="#000000"
     stroke-width="2"
     stroke-linecap="round"
     stroke-linejoin="round"
     id="path110" />
  <path
     d="m 647.81523,281.26914 c 3.3,-3.8 2.8,-6.1 1.7,-6.8 -1.1,-0.7 -2.8,0.6 -5.8,5.4 -3,4.8 -0.5,6.6 4.1,1.4 z"
     fill="#ffffff"
     id="path112" />
  <path
     d="m 632.11523,281.26914 c -2.2,-4.6 -6,-7.9 -9.5,-7.4 -3.5,0.5 -2.1,5.7 2.5,9.2 4.6,3.5 9.4,3.2 7,-1.8 z"
     fill="#ffffff"
     id="path114" />
  <path
     d="m 649.31523,277.06914 c 0.194,-0.9 0.124,-1.838 -0.2,-2.7 -0.9,-0.1 -2.3,0.9 -4.2,3.6 0.2,1.4 0.9,2.4 1.7,2.5 0.8,0.1 2.5,-1.3 2.7,-3.4 z"
     fill="#000000"
     id="path116" />
  <path
     d="m 632.21523,281.56914 c 0,-0.1 -0.1,-0.2 -0.1,-0.3 -1.067,-2.317 -2.68,-4.342 -4.7,-5.9 -0.577,1.143 -0.82,2.425 -0.7,3.7 0.2,2.7 1.6,4.8 3.2,4.7 0.567,-0.076 1.095,-0.33 1.509,-0.725 0.413,-0.395 0.69,-0.912 0.791,-1.475 z"
     fill="#000000"
     id="path118" />
  <path
     d="m 634.11523,291.56914 c 6.3,-1.6 8.8,-2.3 9.8,-0.9 1,1.4 0.1,3 -1.4,4.6 1.6,3.5 1.1,5.1 -2,5.1 -2.26,-0.161 -4.451,-0.846 -6.4,-2"
     stroke="#000000"
     stroke-width="2"
     stroke-linecap="round"
     stroke-linejoin="round"
     id="path120" />
  <path
     d="m 640.81523,293.56914 c -0.392,1.038 -0.931,2.015 -1.6,2.9"
     stroke="#000000"
     stroke-width="2"
     stroke-linecap="round"
     stroke-linejoin="round"
     id="path122" />
  <path
     d="m 212.71523,351.26914 h 10.4 l 7.8,-23.8 h -20.5 z"
     fill="#000000"
     id="path124" />
  <path
     d="m 343.81523,351.26914 h -55.7 c -35.8,0 -56.4,-10.3 -71.8,-22 l -3.6,22 h -9.1 c 0,-105.6 13.6,-205.8 13.6,-205.8 2,-11.3 23.5,-16.4 50.2,-7.1 26.7,9.3 33.8,21.2 32.8,32 -1,10.8 -9.5,83.6 -12.7,117.7 l 5.7,6.2 c 1.966,2.043 3.424,4.519 4.258,7.228 0.834,2.71 1.02,5.577 0.542,8.372 l -0.6,3.3 c 22,14.2 56,7.1 46.4,38.1 z"
     fill="#29cc7a"
     id="path126" />
  <path
     d="m 228.31523,164.86914 c -0.9,12.6 -1.1,17.8 -1.1,19.8 -0.007,0.316 0.052,0.63 0.173,0.923 0.12,0.292 0.3,0.557 0.527,0.777 5.9,5.9 12.9,7.8 18.4,8.5 0.318,0.042 0.641,0.017 0.949,-0.073 0.308,-0.091 0.593,-0.244 0.838,-0.451 0.245,-0.208 0.444,-0.464 0.584,-0.752 0.14,-0.289 0.218,-0.603 0.229,-0.924 l 1.1,-16"
     stroke="#ffffff"
     stroke-width="2"
     stroke-miterlimit="10"
     stroke-linecap="round"
     id="path128" />
  <path
     d="m 223.91523,282.16914 c -3.313,0.07 -6.586,-0.722 -9.5,-2.3"
     stroke="#000000"
     stroke-width="4"
     stroke-miterlimit="10"
     stroke-linecap="round"
     id="path130" />
  <path
     d="m 215.61523,286.76914 c 4.3,0.6 9.6,-1.3 9.6,-1.3"
     stroke="#000000"
     stroke-width="4"
     stroke-miterlimit="10"
     stroke-linecap="round"
     id="path132" />
  <path
     d="m 274.91523,214.96914 c -0.9,9 -1.1,18.9 3.4,21.5 2.8,1.7 8.5,1.5 14.8,-1.5 2.5,-24.9 5.2,-46.3 6.5,-58.4 l -29.8,4.9 c -2.9,25.7 -3.4,34.1 5.1,33.5 z"
     fill="#15ad75"
     id="path134" />
  <path
     d="m 295.64623,178.55014 c 4.779,-10.02 -8.036,-26.102 -28.624,-35.922 -20.587,-9.82 -41.151,-9.658 -45.93,0.362 -4.779,10.019 8.036,26.102 28.624,35.922 20.587,9.819 41.151,9.657 45.93,-0.362 z"
     fill="#000000"
     id="path136" />
  <path
     d="m 216.31523,329.26914 c 15.4,11.7 36,22 71.8,22 h 55.7 c 0.948,-2.877 1.487,-5.873 1.6,-8.9 -59.1,0 -93.4,-1.2 -141,-36.8 -0.4,14.2 -0.7,29.5 -0.8,45.7 h 9.1 z"
     fill="#57f287"
     id="path138" />
  <path
     d="m 220.31523,278.96914 c 2.6,10.1 9.7,17.8 15.9,17.2 6.2,-0.6 6.4,-6.4 4,-16.1 -0.6,-2.6 -1.1,-5.1 -1.6,-7.7 -1.8,-9.2 -6.3,-13.2 -11.8,-12.7 -5.5,0.5 -9.2,9.3 -6.5,19.3 z"
     fill="#ffffff"
     id="path140" />
  <path
     d="m 220.31523,278.96914 c 2.6,10.1 9.7,17.8 15.9,17.2 6.2,-0.6 6.4,-6.4 4,-16.1 -0.6,-2.6 -1.1,-5.1 -1.6,-7.7 -1.8,-9.2 -6.3,-13.2 -11.8,-12.7 -5.5,0.5 -9.2,9.3 -6.5,19.3 z"
     fill="#ffffff"
     id="path142" />
  <path
     d="m 236.61523,279.06914 c 1,4.4 0.3,8.3 -1.4,8.6 -1.7,0.3 -3.8,-2 -4.5,-7.5 -0.7,-5.5 -0.3,-8.5 1.4,-8.5 1.7,0 3.6,2.9 4.5,7.4 z"
     fill="#000000"
     id="path144" />
  <path
     d="m 294.51523,312.36914 c 0.148,0.009 0.296,-0.02 0.431,-0.082 0.135,-0.063 0.252,-0.158 0.341,-0.277 0.089,-0.118 0.147,-0.257 0.17,-0.404 0.022,-0.147 0.008,-0.297 -0.042,-0.437 -2,-10 -8.1,-11.4 -19.4,-8.8 -11.3,2.6 -15.8,3.6 -18,4.4 -2.2,0.8 -1.2,1.3 13.7,3.6 7.535,1.267 15.159,1.936 22.8,2 z"
     fill="#15ad75"
     id="path146" />
  <path
     d="m 344.91523,337.26914 c -11.1,0.1 -29.6,-0.1 -47.8,-1.3 -33.8,-2.3 -64.9,-14.9 -92.5,-37.4 v 1.8 c 27.6,22.3 58.6,34.8 92.4,37 17,1.2 34.2,1.4 45.5,1.4 h 2.7 z"
     fill="#000000"
     id="path148" />
  <path
     d="m 238.61523,272.46914 c -1.8,-9.2 -6.3,-13.2 -11.8,-12.7 -5.5,0.5 -7,4.6 -7.4,10.5 6.191,1.998 12.717,2.746 19.2,2.2 z"
     fill="#5865f2"
     id="path150" />
  <path
     d="m 380.51523,192.16914 -33.3,18.6 c 0.57,0.527 1.287,0.867 2.056,0.975 0.769,0.107 1.552,-0.024 2.244,-0.375 1.9,-0.8 6.5,-5 8.3,-6 1.8,-1 6.9,-3 9.4,-4 3.083,-1.221 5.978,-2.871 8.6,-4.9 2.2,-1.8 3,-2.5 2.7,-4.3 z"
     fill="#000000"
     id="path152" />
  <path
     d="m 298.31523,123.06914 c -6.1,-3.8 -6.4,-3.7 -9.8,-9.8 -3.4,-6.1 -7.7,-9.1 -12.7,-9.8 l 6.2,44.9 c 13,3.8 21,-2.8 22.8,-9.3 1.8,-6.5 -0.3,-12.2 -6.5,-16 z"
     fill="#3442d9"
     id="path154" />
  <path
     d="m 292.21523,128.96914 c -1.7,-7.3 -6.2,-15.8 -11.5,-22.2 -1.899,-2.312 -3.246,-5.027 -3.939,-7.938199 -0.693,-2.9109 -0.714,-5.9415 -0.061,-8.8617 l 2.2,-10 c 1.547,-6.9406 0.722,-14.1992 -2.341,-20.6162 -3.064,-6.4171 -8.19,-11.6222 -14.559,-14.7838 -3.655,-1.7995 -7.633,-2.8533 -11.7,-3.1 -7.653,-0.5606 -15.223,1.8829 -21.104,6.8117 -5.881,4.9289 -9.61,11.9553 -10.396,19.5883 -0.166,1.293 -0.233,2.5968 -0.2,3.9 v 4.3 l 0.2,18 c 0.217,8.086899 -1.497,16.107899 -5,23.399899 -1.454,2.893 -2.561,5.948 -3.3,9.1 l 48.9,52 c 23.3,-3.9 37.9,-26.4 32.8,-49.6 z"
     fill="#3442d9"
     id="path156" />
  <path
     d="m 259.51523,178.56914 c 23.2,-3.9 37.8,-26.4 32.7,-49.6 -1.6,-6.9 -5.7,-14.9 -10.6,-21.1"
     stroke="#000000"
     stroke-width="2"
     stroke-miterlimit="10"
     stroke-linecap="round"
     id="path158" />
  <path
     d="m 276.61523,130.46914 c 4.6,-7.6 6.4,-6.6 14.6,-4.4 6.6,1.7 14.2,15.2 4.1,22 -10.1,6.8 -30.7,2.7 -18.7,-17.6 z"
     fill="#3442d9"
     id="path160" />
  <path
     d="m 253.81823,108.05614 c 0.922,-0.705 1.07,-2.058 0.332,-3.024 -0.738,-0.965 -2.083,-1.176 -3.004,-0.472 -0.921,0.705 -1.07,2.058 -0.332,3.023 0.738,0.966 2.083,1.177 3.004,0.473 z"
     fill="#000000"
     id="path162" />
  <path
     d="m 266.41423,108.83814 c 0.921,-0.704 1.07,-2.058 0.332,-3.023 -0.738,-0.965 -2.083,-1.177 -3.005,-0.472 -0.921,0.704 -1.07,2.058 -0.332,3.023 0.738,0.965 2.083,1.177 3.005,0.472 z"
     fill="#000000"
     id="path164" />
  <path
     d="m 265.11523,107.26914 c 10.7,8.8 6.3,15.1 14.9,28.1"
     stroke="#ffffff"
     stroke-width="3.00593"
     stroke-miterlimit="10"
     stroke-linecap="round"
     id="path166" />
  <path
     d="m 253.01523,126.96914 c 6.6,-4.6 8.6,-5.9 11.1,-5.8 l 6.5,0.6 -1.7,26.4 -16.5,-0.5 z"
     fill="#ffc619"
     id="path168" />
  <path
     d="m 285.01523,120.26914 c 0.125,-0.349 0.166,-0.723 0.122,-1.091 -0.044,-0.368 -0.173,-0.721 -0.376,-1.031 -0.204,-0.31 -0.476,-0.569 -0.796,-0.756 -0.321,-0.187 -0.68,-0.297 -1.05,-0.322 l -11,-1.6 c -0.798,-0.085 -1.602,0.107 -2.275,0.544 -0.674,0.437 -1.177,1.092 -1.425,1.856 l -6.2,23 c -0.124,0.35 -0.166,0.723 -0.122,1.091 0.044,0.368 0.173,0.721 0.376,1.031 0.204,0.31 0.476,0.569 0.797,0.756 0.32,0.187 0.679,0.297 1.049,0.322 l 11,1.6 c 0.799,0.085 1.602,-0.107 2.276,-0.544 0.673,-0.437 1.176,-1.092 1.424,-1.856 z"
     fill="#000000"
     id="path170" />
  <path
     d="m 284.51523,117.96914 1.2,1.4 -3.3,0.3 z"
     fill="#000000"
     id="path172" />
  <path
     d="m 289.91523,133.16914 c -1.4,-2.3 -2.7,-5.2 -6.5,-5.8 l -0.5,4.8 z"
     fill="#ffc619"
     id="path174" />
  <path
     d="m 286.11523,121.56914 c 0.105,-0.349 0.132,-0.717 0.079,-1.078 -0.053,-0.361 -0.184,-0.706 -0.384,-1.011 -0.2,-0.305 -0.464,-0.562 -0.774,-0.754 -0.31,-0.192 -0.659,-0.314 -1.021,-0.357 l -11.1,-1.6 c -0.795,-0.067 -1.591,0.133 -2.26,0.567 -0.67,0.435 -1.177,1.079 -1.44,1.833 l -6.2,23 c -0.105,0.349 -0.132,0.717 -0.079,1.078 0.053,0.361 0.184,0.706 0.384,1.011 0.2,0.305 0.464,0.563 0.774,0.754 0.311,0.192 0.659,0.314 1.021,0.357 l 11.1,1.5 c 0.778,0.128 1.576,-0.037 2.24,-0.461 0.664,-0.425 1.149,-1.079 1.36,-1.839 z"
     fill="#ffffff"
     id="path176" />
  <path
     d="m 282.71523,130.66914 4.5,0.7 c 0.912,0.101 1.747,0.556 2.327,1.266 0.58,0.711 0.857,1.621 0.773,2.534 -0.023,0.475 -0.145,0.94 -0.358,1.365 -0.214,0.424 -0.514,0.8 -0.881,1.101 -0.368,0.302 -0.794,0.523 -1.253,0.649 -0.458,0.127 -0.938,0.156 -1.408,0.085 l -3.3,-0.5 c -1.025,-0.147 -1.973,-0.629 -2.697,-1.37 -0.723,-0.742 -1.181,-1.701 -1.303,-2.73 -0.025,-0.458 0.056,-0.916 0.236,-1.338 0.18,-0.422 0.455,-0.797 0.802,-1.097 0.348,-0.299 0.76,-0.515 1.204,-0.63 0.444,-0.115 0.909,-0.127 1.358,-0.035 z"
     fill="#ffc619"
     id="path178" />
  <path
     d="m 281.21523,137.36914 3.1,0.5 c 0.519,0.066 1.017,0.243 1.46,0.52 0.443,0.277 0.82,0.648 1.105,1.085 0.286,0.438 0.473,0.933 0.548,1.45 0.075,0.517 0.036,1.044 -0.113,1.545 -0.213,0.806 -0.723,1.502 -1.428,1.947 -0.705,0.445 -1.552,0.607 -2.372,0.453 l -1.9,-0.3 c -1.037,-0.143 -1.999,-0.621 -2.739,-1.361 -0.74,-0.74 -1.218,-1.702 -1.361,-2.739 -0.029,-0.469 0.053,-0.937 0.238,-1.369 0.186,-0.431 0.47,-0.813 0.83,-1.115 0.36,-0.301 0.785,-0.514 1.243,-0.621 0.457,-0.107 0.933,-0.105 1.389,0.005 z"
     fill="#ffc619"
     id="path180" />
  <path
     d="m 271.51523,148.76914 -10.8,-1.5 0.5,-4.4 10.8,1.6 z"
     fill="#ffc619"
     id="path182" />
  <path
     d="m 274.11523,131.26914 -6.8,-1 c -0.324,-0.044 -0.628,-0.181 -0.877,-0.393 -0.248,-0.213 -0.43,-0.493 -0.523,-0.807 l -0.6,-1.8 -0.5,-3.7 -3.7,13 11,1.6 c 1.024,0.137 2.064,-0.075 2.953,-0.601 0.889,-0.526 1.575,-1.335 1.947,-2.299 0.119,-0.457 0.135,-0.935 0.048,-1.399 -0.088,-0.464 -0.277,-0.903 -0.554,-1.285 -0.277,-0.383 -0.636,-0.699 -1.049,-0.926 -0.414,-0.228 -0.873,-0.361 -1.345,-0.39 z"
     fill="#ffc619"
     id="path184" />
  <path
     d="m 271.91523,138.06914 -10.8,-1.5 0.5,7.2 8.3,1.2 c 1.013,0.151 2.046,-0.057 2.922,-0.586 0.876,-0.529 1.54,-1.348 1.878,-2.314 0.137,-0.45 0.17,-0.925 0.097,-1.39 -0.074,-0.465 -0.253,-0.906 -0.522,-1.292 -0.27,-0.385 -0.624,-0.704 -1.036,-0.933 -0.411,-0.228 -0.869,-0.36 -1.339,-0.385 z"
     fill="#ffc619"
     id="path186" />
  <path
     d="m 348.51523,182.16914 c 0.3,-10.8 -8.6,-12.5 -14.7,-16.3 -6.1,-3.8 -13.3,-11.8 -20.8,-17.2 -7.5,-5.4 -14,-5.3 -26.7,-1.4 l 14.5,28.2 c 8.2,4.2 10,8.8 14.4,15 4.4,6.2 10.3,8.6 16.2,7.5 3.1,5.1 3.7,6.3 8.2,4.7 4.5,-1.6 11.9,-5 13.9,-10.9 2,-5.9 -0.9,-6.9 -5,-9.6 z"
     fill="#66bcff"
     id="path188" />
  <path
     d="m 341.01523,199.26914 c -3.8,-0.9 -5.3,-3 -7.7,-6.3 l -2.1,-2.8 c -10.3,-2.1 -14.5,-7.6 -16.8,-11.6 -1.1,-1.9 -3.1,-3.4 -5,-4.8 -1.9,-1.4 -3.8,-2.9 -4.9,-4.7 -0.828,-1.348 -1.563,-2.751 -2.2,-4.2 -0.8,-2.1 -1.5,-3.5 -2.8,-3.9 -1.3,-0.4 -3.5,0.4 -5.6,1.3 -1.907,0.919 -3.923,1.591 -6,2 -0.172,0.032 -0.349,-0.002 -0.497,-0.095 -0.148,-0.092 -0.256,-0.237 -0.303,-0.405 -0.006,-0.181 0.051,-0.36 0.16,-0.505 0.109,-0.146 0.264,-0.249 0.44,-0.295 1.957,-0.329 3.847,-0.97 5.6,-1.9 2.4,-1 4.4,-1.9 6.5,-1.3 2.1,0.6 2.8,2.4 3.7,4.6 0.9,2.2 1.2,2.6 2,4 1.323,1.679 2.911,3.131 4.7,4.3 2,1.6 4.1,3.2 5.3,5.3 2.3,4.1 6.3,9 16.2,11 h 0.2 l 0.2,0.2 c 0.9,1.1 1.6,2.2 2.3,3.1 2.2,3.1 3.6,5 6.8,5.8 0.087,-0.007 0.173,0.008 0.252,0.044 0.079,0.037 0.147,0.093 0.197,0.164 0.051,0.07 0.082,0.153 0.091,0.239 0.009,0.087 -0.005,0.174 -0.04,0.253 0.007,0.087 -0.008,0.174 -0.044,0.252 -0.037,0.079 -0.093,0.147 -0.163,0.198 -0.071,0.05 -0.154,0.081 -0.24,0.09 -0.086,0.009 -0.173,-0.005 -0.253,-0.04 z"
     fill="#45aaf7"
     id="path190" />
  <path
     d="m 300.21523,158.86914 c -1.344,4.293 -2.215,8.719 -2.6,13.2"
     stroke="#000000"
     stroke-width="2"
     stroke-miterlimit="10"
     stroke-linecap="round"
     id="path192" />
  <path
     d="m 306.11523,210.86914 c -9.1,8.2 -16.8,5.9 -20.4,5.5 -3.6,-0.4 -3.2,-3 -3.5,-5.2 -0.3,-2.2 -0.5,-5.5 -0.5,-5.5 -9.1,-0.6 -10.2,-6.8 -10.4,-12.3 -0.2,-5.5 -1.6,-6.3 -2.3,-10.2 -10.972,-1.971 -21.342,-6.441 -30.308,-13.066 -8.966,-6.624 -16.285,-15.225 -21.392,-25.134 l 9.5,-6.9 21.2,13.8 c 14.3,-5.3 22.2,-8 29.9,-8.5 7.7,-0.5 15.3,2.4 17.8,13.1 2.5,10.7 2.8,14 5.1,19.1 0.6,1.3 1.6,3.1 2.6,5 2.8,5.7 5.7,13.7 0,22.4 0.695,2.699 1.598,5.341 2.7,7.9 z"
     fill="#8cd9ff"
     id="path194" />
  <path
     d="m 232.81523,165.16914 c -0.3,-7.1 2.4,-12.1 7.3,-12.9 l -12.4,-8.6 -9,3.9 c 2.3,6.4 8.2,13.4 14.1,17.6 z"
     fill="#000000"
     id="path196" />
  <path
     d="m 288.71523,212.76914 0.2,-1.3 c -1.8,-0.3 -1.9,-1.6 -2.4,-7.7 v -0.8 l -0.4,-0.2 c -4,-1 -6.7,-3.4 -6.9,-11.5 -0.034,-3.847 -0.815,-7.651 -2.3,-11.2 -0.388,-0.833 -0.69,-1.705 -0.9,-2.6 -0.2,-0.8 -0.5,-1.6 -0.7,-2.3 -1.129,-2.823 -1.441,-5.907 -0.9,-8.9 0.4,-3.1 0.1,-4.8 -0.9,-5.7 -1,-0.9 -3.5,-0.6 -7.2,0.6 h -0.5 c -5.9,1.9 -17.7,5.8 -29.6,6.8 l 1.5,1.1 c 11.6,-1.1 22.8,-4.8 28.5,-6.6 l 0.5,-0.2 c 3,-1 5.1,-1.5 6,-0.8 0.9,0.7 0.7,2 0.4,4.5 -0.533,3.199 -0.188,6.483 1,9.5 0.259,0.716 0.46,1.452 0.6,2.2 0.3,0.9 0.6,1.8 1,2.7 1.427,3.424 2.174,7.092 2.2,10.8 0.2,7.5 2.3,11.2 7.4,12.7 0.4,6.1 0.6,8.4 3.4,8.9 z"
     fill="#66bcff"
     id="path198" />
  <path
     d="m 253.21523,125.56914 c -2.9,-2.5 -5.1,-2.3 -8.6,-0.8 -3.7,-3.4 -8.5,-3.9 -13.5,-2.2 -5,1.7 -12.7,4 -17.2,5.2 -0.251,0.094 -0.524,0.113 -0.786,0.056 -0.262,-0.058 -0.502,-0.189 -0.692,-0.378 -0.189,-0.19 -0.32,-0.43 -0.377,-0.692 -0.058,-0.262 -0.038,-0.535 0.055,-0.786 l 3.3,-12 c -10.7,8 -14.2,25.1 -10.8,34.4 3.4,9.3 18.2,9.2 22.9,6.6 4.7,-2.6 6.3,-3.4 11.7,-2.4 5.4,1 9.6,1.7 16.7,-3.7 l 4.2,-1.4 c 1.6,-9.1 0.2,-15.7 -6.9,-21.9 z"
     fill="#3442d9"
     id="path200" />
  <path
     d="m 253.21523,125.56914 c -2.9,-2.5 -5.1,-2.3 -8.6,-0.8 -3.7,-3.4 -8.5,-3.9 -13.5,-2.2 -5,1.7 -12.7,4 -17.2,5.2"
     stroke="#000000"
     stroke-width="2"
     stroke-miterlimit="10"
     stroke-linecap="round"
     id="path202" />
  <path
     d="m 244.61523,124.76914 c 2.987,2.313 5.474,5.207 7.313,8.506 1.839,3.3 2.991,6.938 3.387,10.694"
     stroke="#000000"
     stroke-width="2"
     stroke-miterlimit="10"
     stroke-linecap="round"
     id="path204" />
  <path
     d="m 274.91523,121.76914 c 0.045,-0.138 0.06,-0.284 0.043,-0.429 -0.017,-0.144 -0.065,-0.283 -0.142,-0.406 -0.076,-0.124 -0.178,-0.23 -0.299,-0.31 -0.121,-0.08 -0.258,-0.133 -0.402,-0.155 h -1 c -0.278,-0.061 -0.569,-0.011 -0.811,0.138 -0.243,0.149 -0.418,0.386 -0.489,0.662 l -0.9,3.3 c -0.046,0.146 -0.058,0.3 -0.035,0.451 0.023,0.151 0.08,0.294 0.166,0.42 0.087,0.125 0.202,0.229 0.335,0.304 0.133,0.074 0.282,0.117 0.434,0.125 h 1 c 0.263,0.034 0.529,-0.029 0.75,-0.176 0.22,-0.147 0.38,-0.368 0.45,-0.624 z"
     fill="#29cc7a"
     id="path206" />
  <path
     d="m 258.91523,102.56914 c 0.773,-1.565 1.914,-2.918699 3.324,-3.946199 1.411,-1.0276 3.05,-1.6979 4.776,-1.9537 0.2,0 0.3,-0.2 0.2,-0.3 -1.3,-4.8 -0.7,-7.5 1,-11 0.017,-0.0254 0.028,-0.0543 0.032,-0.0845 0.004,-0.0303 10e-4,-0.0611 -0.008,-0.09 -0.01,-0.029 -0.026,-0.0553 -0.048,-0.0771 -0.021,-0.0217 -0.047,-0.0383 -0.076,-0.0484 -5.6,-2.4 -7.7,-6.4 -8.3,-9.4 -0.1,-0.2 -0.4,-0.3 -0.5,-0.1 -2.5,5 -5.9,5.2 -8.8,4.8 -0.2,0 -0.3,0.2 -0.2,0.3 2.9,5.6 0.8,9.6 -2.1,12.4 -0.015,0.0392 -0.023,0.0813 -0.021,0.1235 0.002,0.0422 0.013,0.0834 0.032,0.1212 0.019,0.0378 0.045,0.0711 0.078,0.0979 0.032,0.0267 0.07,0.0463 0.111,0.0574 5.6,1 8.6,4.7 10,8.999899 0.1,0.2 0.4,0.3 0.5,0.1 z"
     fill="#ffc619"
     id="path208" />
  <path
     d="m 271.91523,138.06914 -5.7,-0.8"
     stroke="#000000"
     stroke-width="2"
     stroke-miterlimit="10"
     stroke-linecap="round"
     id="path210" />
  <path
     d="m 282.31523,137.76914 3.2,0.5"
     stroke="#000000"
     stroke-width="2"
     stroke-miterlimit="10"
     stroke-linecap="round"
     id="path212" />
  <path
     d="m 259.61523,75.469241 c 2.5,-5.6 2.3,-9.5 1.6,-11.7"
     stroke="#000000"
     stroke-width="2"
     stroke-miterlimit="10"
     stroke-linecap="round"
     id="path214" />
  <path
     d="m 267.61523,85.269241 c 1.56,0.2391 3.154,0.1396 4.672,-0.2918 1.519,-0.4313 2.927,-1.1844 4.128,-2.2082"
     stroke="#000000"
     stroke-width="2"
     stroke-miterlimit="10"
     stroke-linecap="round"
     id="path216" />
  <path
     d="m 258.91523,102.56914 c 0.008,0.744 -0.093,1.486 -0.3,2.2"
     stroke="#000000"
     stroke-width="2"
     stroke-miterlimit="10"
     stroke-linecap="round"
     id="path218" />
  <path
     d="m 248.71523,93.169341 c -3.7,2.6 -9.3,2.2 -13.2,1"
     stroke="#000000"
     stroke-width="2"
     stroke-miterlimit="10"
     stroke-linecap="round"
     id="path220" />
  <path
     d="m 250.51523,80.369341 c -1.4,-2.9 -4,-6.2 -6.4,-7.3"
     stroke="#000000"
     stroke-width="2"
     stroke-miterlimit="10"
     stroke-linecap="round"
     id="path222" />
  <path
     d="m 267.21523,96.369241 c 1.29,0.6885 2.67,1.1934 4.1,1.5"
     stroke="#000000"
     stroke-width="2"
     stroke-miterlimit="10"
     stroke-linecap="round"
     id="path224" />
  <path
     d="m 256.51523,85.669341 c 1.7,6.6 3.9,6.2 4.9,4.2 1,-2 1.7,-4.5 3.3,-4.3 1.6,0.2 1.2,3 -0.7,7 -1.9,4 -5,4.9 -7.9,1.4 -2.9,-3.5 -3,-6.9 -3.1,-9.3 -0.1,-2.4 2.4,-3 3.5,1 z"
     fill="#c40655"
     id="path226" />
  <path
     d="m 252.51523,106.46914 c 1.2,13.8 -5.8,20.4 -8,34.1"
     stroke="#ffffff"
     stroke-width="3.00593"
     stroke-miterlimit="10"
     stroke-linecap="round"
     id="path228" />
  <path
     d="m 268.21523,183.26914 c -1.8,-5.9 -2.6,-16.7 2.3,-26.2"
     stroke="#000000"
     stroke-width="2"
     stroke-miterlimit="10"
     stroke-linecap="round"
     id="path230" />
  <path
     d="m 267.11523,168.56914 c -1.128,-2.192 -1.679,-4.636 -1.6,-7.1"
     stroke="#000000"
     stroke-width="2"
     stroke-miterlimit="10"
     stroke-linecap="round"
     id="path232" />
  <path
     d="m 217.81523,126.66914 -7.4,2.4"
     stroke="#000000"
     stroke-width="2"
     stroke-miterlimit="10"
     stroke-linecap="round"
     id="path234" />
  <path
     d="m 291.31523,125.76914 5,1.4"
     stroke="#000000"
     stroke-width="2"
     stroke-miterlimit="10"
     stroke-linecap="round"
     id="path236" />
  <path
     d="m 380.51523,192.06914 c -0.549,0.802 -1.186,1.54 -1.9,2.2 -3.2,3.2 -10.5,6.8 -14.4,8.3 -2.967,0.939 -5.696,2.508 -8,4.6 -2.9,2.3 -6.5,5.4 -9,3.6 -3.149,-2.899 -6.027,-6.079 -8.6,-9.5 -0.146,-0.179 -0.241,-0.394 -0.276,-0.623 -0.036,-0.228 -0.009,-0.462 0.076,-0.677 1.4,-4 5.9,-9.7 12.4,-12.7 0.215,-0.085 0.449,-0.112 0.677,-0.076 0.229,0.035 0.444,0.13 0.623,0.276 3.8,2.7 6.1,3.4 9.2,3.3 3.1,-0.1 9.1,-2.1 14,-3.5 4.9,-1.4 5,0.8 5.2,4.8 z"
     fill="#ffc619"
     id="path238" />
  <path
     d="m 341.41523,204.76914 c 1.786,2.138 3.724,4.143 5.8,6 2.5,1.8 6.1,-1.3 9,-3.6 2.304,-2.092 5.033,-3.661 8,-4.6 3.9,-1.5 11.2,-5.1 14.4,-8.3 0.714,-0.66 1.351,-1.398 1.9,-2.2 -0.2,-4 -1.1,-6 -5.2,-4.8 -4.1,1.2 -6.4,2.2 -9.4,2.9 -0.892,0.239 -1.701,0.721 -2.337,1.391 -0.635,0.671 -1.073,1.505 -1.263,2.409 -0.1,1.1 -0.3,2.2 -0.5,3.5 -5.4,-1.1 -10.6,0.7 -11.7,7.8 0,0 -4.6,-2.5 -8.7,-0.5 z"
     fill="#ffe75c"
     id="path240" />
  <path
     d="m 378.61523,194.26914 1.9,-2.1 c 0.127,-0.211 0.196,-0.453 0.2,-0.7 -0.092,-0.758 -0.295,-1.499 -0.6,-2.2 -0.8,1.5 -2.2,3 -5.3,5.3 -4.9,3.6 -10.4,4.9 -13.7,6 -3.021,1.126 -5.778,2.862 -8.1,5.1 -1.825,2.062 -4.23,3.525 -6.9,4.2 l 1.1,0.9 c 2.5,1.8 6.1,-1.3 9,-3.6 2.304,-2.092 5.033,-3.661 8,-4.6 3.9,-1.5 11.2,-5.1 14.4,-8.3 z"
     fill="#ffffff"
     id="path242" />
  <path
     d="m 317.61523,198.76914 c -5.1,-1.4 -10.3,1 -14.9,9.7 -1.3,-1 -4.5,-2.1 -9.3,-1.2 -4.8,0.9 -6.6,3 -7.4,4.6 -0.476,0.924 -0.617,1.984 -0.4,3 0.3,1.3 0.7,3 1.3,5.8 0.9,4.3 0.4,8.1 2.8,8.5 l 33.6,-24.2 c 0,0 0.9,-4.4 -5.7,-6.2 z"
     fill="#ffc619"
     id="path244" />
  <path
     d="m 317.61523,198.76914 c -5.1,-1.4 -10.3,1 -14.9,9.7 -0.638,1.302 -1.206,2.637 -1.7,4 -5.3,-0.5 -7.8,1.8 -8.7,6.9 0,0 -3.5,-2.4 -5.6,0.4 0.1,0.3 0.1,0.6 0.2,0.9 0.9,4.3 0.4,8.1 2.8,8.5 l 33.6,-24.2 c 0,0 0.9,-4.4 -5.7,-6.2 z"
     fill="#ffe75c"
     id="path246" />
  <path
     d="m 323.31523,203.56914 -2.5,-2.3 c -4.3,-0.7 -7.9,-0.8 -11.7,3.5 -3.8,4.3 -6.3,9 -10.3,11.8 -5.7,4.2 -10.5,5.9 -11.2,9 -0.7,3.1 0.7,3.4 2.1,3.6 l 33.6,-24.2 c 0.123,-0.458 0.123,-0.941 0,-1.4 z"
     fill="#ffffff"
     id="path248" />
  <path
     d="m 319.01523,199.76914 2.4,0.7 c 0.209,0.034 0.407,0.114 0.58,0.235 0.174,0.122 0.317,0.281 0.42,0.465 0.927,1.566 1.313,3.393 1.1,5.2 l -8.8,-1.6 c 2.9,-1.4 3.9,-2.7 3.6,-4.4 -0.03,-0.094 -0.032,-0.194 -0.005,-0.289 0.027,-0.095 0.081,-0.179 0.156,-0.243 0.075,-0.065 0.167,-0.105 0.264,-0.117 0.098,-0.012 0.197,0.005 0.285,0.049 z"
     fill="#ffffff"
     id="path250" />
  <path
     d="m 289.91523,229.26914 c 8.6,1.7 12.4,-1 16.1,-4.8 1.535,-1.698 3.322,-3.148 5.3,-4.3 5.1,-2.9 9.1,-6 11.8,-10.9 2.7,-4.9 -5.6,-8.1 -11,-3.6 -5.4,4.5 -5.7,9.8 -16.4,16.4 -7.3,4.6 -8.3,6.7 -5.8,7.2 z"
     fill="#000000"
     id="path252" />
  <path
     d="m 291.13823,213.66214 c 0.05,-0.992 -0.401,-1.822 -1.008,-1.853 -0.606,-0.031 -1.139,0.749 -1.189,1.742 -0.051,0.993 0.401,1.823 1.007,1.853 0.607,0.031 1.14,-0.749 1.19,-1.742 z"
     fill="#ffffff"
     id="path254" />
  <path
     d="m 380.81523,190.86914 c -0.176,-1.014 -0.513,-1.993 -1,-2.9 -0.1,-0.1 -0.2,-0.2 -0.3,-0.1 h -0.1 c -0.2,0 -0.2,0.1 -0.2,0.2 0.5,2.1 0.7,4.5 -0.4,5.9 2.3,-1.8 2.1,-2.8 2,-3.1 z"
     fill="#ffffff"
     id="path256" />
  <path
     d="m 345.13923,201.50214 c 0.917,-0.205 1.406,-1.507 1.092,-2.909 -0.313,-1.401 -1.31,-2.371 -2.226,-2.166 -0.916,0.205 -1.405,1.507 -1.092,2.908 0.313,1.401 1.31,2.371 2.226,2.167 z"
     fill="#ffffff"
     id="path258" />
  <path
     d="m 420.11423,351.26914 c 42.3,0 77,-17.6 122.6,-57.8 45.6,-40.2 61.6,-53.4 74.5,-65.9 12.9,-12.5 12,-20.6 5.3,-36.6 -6.7,-16 -11.1,-13.7 -11.1,-13.7 -0.8,-13 -13.5,-34.5 -27.5,-51.8 -14,-17.3 -22.4,-14.5 -37.8,-14.5 -15.4,0 -20.5,4.2 -27.4,22.6 -6.9,18.4 -24.1,34 -56.6,39.7 -32.5,5.7 -50.3,5.4 -51.2,21.7 -0.9,16.3 0,44.4 -14.4,66.6 -17.901,8.652 -36.72,15.26 -56.1,19.7 -11.4,2.6 -13.8,10.1 -14.9,19.9 -1.1,9.8 2.9,15.1 4.8,18.2 -3.9,3.7 -3.1,5.3 -1.2,14 0.8,3.5 1.7,7 2.5,10.1 0.652,2.253 2.019,4.233 3.895,5.64 1.876,1.407 4.16,2.165 6.505,2.16 z"
     fill="#66bcff"
     id="path260" />
  <path
     d="m 325.51423,301.16914 c -1.1,9.8 2.9,15.1 4.8,18.2 l 78.3,9 75.8,-11.1 c 0,0 50,-40.3 43.2,-53.7 -6.8,-13.4 -21.1,-0.8 -40.2,12.2 -19.1,13 -38.9,14.2 -61.6,10.9 -22.7,-3.3 -50.2,-13 -85.4,-5.4 -11.4,2.6 -13.8,10.1 -14.9,19.9 z"
     fill="#45aaf7"
     id="path262" />
  <path
     d="m 535.71423,256.86914 c 0.1,-17.3 -0.5,-21.4 5.3,-20.6 5.8,0.8 15.3,2.7 15.3,2.7 l -10.3,16.3 z"
     fill="#a3e1ff"
     id="path264" />
  <path
     d="m 566.11423,229.96914 c 0,-8.4 -0.7,-13.9 1.6,-15.1 2.3,-1.2 5,0.3 9.8,4.6 4.8,4.3 -11.4,10.5 -11.4,10.5 z"
     fill="#a3e1ff"
     id="path266" />
  <path
     d="m 335.31423,317.26914 c -1.3,-10.1 -1,-18.1 1.7,-20.1 2.7,-2 5.3,2.6 7.2,6.6 2.422,5.076 5.444,9.843 9,14.2 z"
     fill="#a3e1ff"
     id="path268" />
  <path
     d="m 422.11423,319.46914 c 3.3,-13.5 6.1,-16.8 8.9,-17 2.8,-0.2 4.2,6.2 8.2,15.3 l -6.6,3.1 z"
     fill="#a3e1ff"
     id="path270" />
  <path
     d="m 602.11423,195.96914 c -42.5,41.1 -67.9,63.7 -103.5,90.2 -35.6,26.5 -51.5,33.4 -81.4,33.4 -29.9,0 -49.1,-16.8 -86.9,-0.2 -3.9,3.7 -3.1,5.3 -1.2,14 0.8,3.5 1.7,7 2.5,10.1 0.652,2.253 2.019,4.233 3.895,5.64 1.876,1.407 4.16,2.165 6.505,2.16 h 78.1 c 42.3,0 77,-17.6 122.6,-57.8 45.6,-40.2 61.6,-53.4 74.5,-65.9 12.9,-12.5 12,-20.6 5.3,-36.6 -6.7,-16 -11.1,-13.7 -11.1,-13.7 0,4.5 0.3,9.3 -9.3,18.7 z"
     fill="#ffffff"
     id="path272" />
  <path
     d="m 623.01423,192.06914 c -0.1,5.8 -3.7,12.4 -13.5,21.4 -19.2,17.5 -58.9,53.3 -86.2,76.5 -29.9,25.7 -57.7,46.9 -94.7,46.9 -12.9,0 -27,-2.7 -40.7,-5.3 -24.1,-4.6 -47,-8.9 -58.6,2.7 0.1,0.6 0.3,1.3 0.4,1.9 10.8,-11.9 33.7,-7.6 57.9,-3 13.8,2.6 28,5.3 41,5.3 37.5,0 66.7,-22.4 95.7,-47.2 27.3,-23.3 67.1,-59.2 86.2,-76.6 7.2,-6.6 12.4,-12.7 13.7,-19.4 z"
     fill="#ffe75c"
     id="path274" />
  <path
     d="m 511.11423,318.86914 -13.9,-31.6 c -5.333,3.933 -10.233,7.433 -14.7,10.5 l -1.2,1.4 c 5.2,-2.2 10.4,0.7 10.8,9.6 0.1,4.8 0.1,14.5 0.1,22.3 6.517,-3.721 12.826,-7.793 18.9,-12.2 z"
     fill="#000000"
     id="path276" />
  <path
     d="m 347.81423,343.26914 c -8,0.1 -11.9,3.3 -8.7,6.4 1.165,1.082 2.711,1.657 4.3,1.6 h 68.7 c -34.2,0 -37.7,-8.4 -64.3,-8 z"
     fill="#000000"
     id="path278" />
  <path
     d="m 583.41423,166.76914 c -10.3,13.2 -13.9,18.4 -9.6,32.5 1.8,6.1 4.1,12.6 6,18 l 22.3,-21.3 c 9.6,-9.4 9.3,-14.2 9.3,-18.7 -0.7,-11.1 -10,-28.4 -21.5,-44 5.8,8.4 3.8,20.3 -6.5,33.5 z"
     fill="#45aaf7"
     id="path280" />
  <path
     d="m 569.71423,149.96914 c 5.9,-22.5 5.3,-37.5 -9.2,-39 -4.3,-0.4 -8.9,0 -14.4,0 -15.5,0 -20.5,4.2 -27.4,22.6 -6.9,18.4 -24.1,34 -56.6,39.7 -32.5,5.7 -50.3,5.4 -51.2,21.7 -0.9,16.3 0,44.4 -14.4,66.6 -2.1,3.7 0.4,6.2 30.3,6.2 29.9,0 47.7,-1.8 52.7,-14.3 5,-12.5 12.2,-39.8 15.8,-50.6 3.6,-10.8 3,-17 22.9,-21.5 19.9,-4.5 45.9,-9.7 51.5,-31.4 z"
     fill="#8cd9ff"
     id="path282" />
  <path
     d="m 500.61423,178.56914 c 16,-6.6 27.3,-5.1 44.3,-13.2 17,-8.1 19.2,-14.1 21.3,-25.2 2.1,-11.1 3.6,-24.2 -6.7,-25.1 -10.3,-0.9 -19.6,-0.5 -24.3,1.1 -4.7,1.6 -5.9,4.5 -11,15 -5.1,10.5 -7.6,26.1 -30.5,36.3 z"
     fill="#000000"
     id="path284" />
  <path
     d="m 365.81423,312.26914 c 0.1,5.1 1.5,12.4 4.3,13.1 2.8,0.7 4.1,-5 7,-12.1 -3.1,-3.2 -11.3,-6.5 -11.3,-1 z"
     fill="#a3e1ff"
     id="path286" />
  <path
     d="m 493.41423,289.06914 c -2.478,0.102 -4.902,0.751 -7.1,1.9 -9.3,4.7 -9.2,8.7 -8.9,10.1 12.7,-7.7 18.3,0.8 21.9,25.7 1.4,9.8 3.9,14.6 11.1,14.6 8.8,0 14,-6.2 13.4,-22.2 -0.135,-3.019 -0.469,-6.025 -1,-9 -2.5,-13.4 -7.7,-26.9 -20.3,-26.9 -1.89,0.094 -3.722,0.678 -5.318,1.695 -1.596,1.017 -2.899,2.432 -3.782,4.105 z"
     fill="#ff78b9"
     id="path288" />
  <path
     d="m 587.31423,243.96914 c -5.4,4.8 -10.8,5.2 -12,1 -1.2,-4.2 2.1,-11.6 7.5,-16.3 l 9.4,-8.3 c 5.4,-4.8 10.8,-5.2 12,-1 1.2,4.2 -2.2,11.6 -7.5,16.3 z"
     fill="#ffa8d2"
     id="path290" />
  <path
     d="m 493.41423,289.06914 c 8.4,0.9 14.8,4.8 17.5,15.4 1.9,7.5 1.3,16.3 2.6,23.9"
     stroke="#000000"
     stroke-width="2"
     stroke-linecap="round"
     stroke-linejoin="round"
     id="path292" />
  <path
     d="m 589.11423,169.06914 -2.5,3.4 c -7.9,10.3 -10.8,14.1 -2.4,40.6 l 1.3,-1.2 c -7.9,-25 -5.3,-28.5 2.3,-38.4 l 2.6,-3.4 c 6.2,-8.4 8.5,-16.7 8.3,-23.8 l -1.8,-2.8 c 1,7.3 -1,16.4 -7.8,25.6 z"
     fill="#5865f2"
     id="path294" />
  <path
     d="m 475.21423,307.46914 c 0.8,-4.5 -0.2,-6.7 -2.5,-6.4 -2.3,0.3 -4.3,1.7 -6.5,6.8 1.8,19.5 7,11.9 9,-0.4 z"
     fill="#a3e1ff"
     id="path296" />
  <path
     d="m 557.41623,118.26914 15.7,-2 c 2.5,-0.3 3.4,-6 4.5,-13.2 1.1,-7.199899 -0.2,-20.299899 -0.2,-20.299899 l -16.2,4.9 z"
     fill="#ff78b9"
     id="path298" />
  <path
     d="m 601.01623,78.069241 c -6.7,-7.5 -40.7,-33.7 -40.7,-33.7 l -8,11.5 c 0,0 11.3,12.5 19.4,20.9 -16.4,1.3 -46,5.2 -46,5.2 -21,-4.2 -29.9,-6.2 -29.9,-6.2 l 21.6,-20.5 -7.9,-11.8 c 0,0 -20.6,12.6 -32.2,21.7 -11.6,9.1 -13.5,20.3 -2.5,28.8 11,8.499899 14.7,11.099899 14.7,11.099899 l 70.9,7.3 c 20.8,-5.8 33.2,-12.1 40.7,-18.599899 7.5,-6.5 6.6,-8.2 -0.1,-15.7 z"
     fill="#ffc619"
     id="path300" />
  <path
     d="m 483.61623,74.669141 c 2.5,0.4 6.9,1.6001 6.9,1.6001"
     stroke="#000000"
     stroke-width="2"
     stroke-linecap="round"
     stroke-linejoin="round"
     id="path302" />
  <path
     d="m 556.01623,40.769241 -7.1,11.9 8,8.2001 c 2.6,-2.9 5.2,-8.0001 4.4,-15.7001 z"
     fill="#000000"
     id="path304" />
  <path
     d="m 510.01623,92.769241 c -9.6,-11.8 -13,-16.9 -15,-22.8 -1.4,-4.3 7.1,-1.7 18.1,1.6 11,3.3 9.3,6.4 -3.1,21.2 z"
     fill="#ff78b9"
     id="path306" />
  <path
     d="m 496.21623,75.469241 c -10.1,11.3 -10.3,25.099899 -9.2,44.399899 0,0 -17.4,17.5 -14.9,32.8 2.5,15.3 26.3,21.9 53.4,21.6 21.8,-0.2 24.2,-5.3 26.2,-15.6 1.2,-6.7 2.1,-14.4 2.7,-20.4 0.605,-6.307 2.191,-12.482 4.7,-18.3 13.4,-31.099899 2.6,-42.299899 2.6,-42.299899 l -36.2,2.9 z"
     fill="#ff78b9"
     id="path308" />
  <path
     d="m 504.21623,59.269241 c -8.5,6.3 -6.7,15.9 5.3,29.1 l 5.4,5.4 34.9,-5.7 c 11.2,-13.9 9,-23.2 4.9,-29 5.7,-9.4 6.1,-15.9 6,-21.7 -0.1,-9.8 -9,-25.2 -31.4,-25 -12.2,0.1 -23,4.9 -26.9,20.4 -1.4,5.4 -1.7,14.2 1.8,26.5 z"
     fill="#ffe75c"
     id="path310" />
  <path
     d="m 547.41623,25.069241 c 0.267,-0.0015 0.532,0.0535 0.776,0.1612 0.245,0.1077 0.464,0.2659 0.643,0.464 0.18,0.1982 0.315,0.432 0.398,0.6862 0.083,0.2541 0.111,0.5228 0.083,0.7886 l -1.2,13.5 c -0.355,3.0278 -1.779,5.8295 -4.015,7.901 -2.237,2.0715 -5.139,3.2768 -8.185,3.399 h -2.7 c -3.184,0.0302 -6.27,-1.1002 -8.681,-3.1799 -2.411,-2.0797 -3.982,-4.9663 -4.419,-8.1201 l -0.5,-4.5 c -0.073,-0.5301 -0.337,-1.0154 -0.742,-1.3651 -0.405,-0.3497 -0.923,-0.5399 -1.458,-0.5349 -0.551,-0.0023 -1.082,0.2019 -1.489,0.5721 -0.407,0.3703 -0.661,0.8798 -0.711,1.4279 l -0.6,7.2 c -0.222,2.3794 -1.314,4.5934 -3.067,6.2174 -1.753,1.624 -4.044,2.5436 -6.433,2.5826 -1.433,0.0541 -2.86,-0.2035 -4.183,-0.755 -1.323,-0.5515 -2.511,-1.3838 -3.481,-2.4394 -0.97,-1.0555 -1.699,-2.3091 -2.137,-3.674 -0.438,-1.365 -0.574,-2.8088 -0.399,-4.2316 l 1.2,-13.6 c 0.071,-0.5398 0.33,-1.037 0.733,-1.4033 0.403,-0.3662 0.923,-0.5776 1.467,-0.5967 z"
     fill="#000000"
     id="path312" />
  <path
     d="m 548.71623,25.569241 12,11.8 v 2.4 l -11.9,-8.3 z"
     fill="#000000"
     id="path314" />
  <path
     d="m 561.71623,77.569141 c -5.629,-5.317 -12.257,-9.4638 -19.5,-12.2 -6.5,-2.3 -8,-2.9 -9.5,0.8 -1.5,3.7 -3.1,7.9 -3.7,9.3 -0.6,1.4 -7.7,6.2 -12,9.8 -4.3,3.6 -8.8,11.3 -8.8,11.3 l 45.6,3.499999 z"
     fill="#ff78b9"
     id="path316" />
  <path
     d="m 571.51623,76.569241 5.9,6.2 c -2.7,8.4 -4.4,18.899899 -5.4,30.599899 l -23.3,1.7 13,-37.399899 z"
     fill="#ff78b9"
     id="path318" />
  <path
     d="m 496.21623,75.469141 -4.3,-0.8 c -0.66,-0.0956 -1.332,-0.0468 -1.971,0.1432 -0.639,0.1899 -1.229,0.5164 -1.729,0.9569 -4.895,4.4553 -8.197,10.3911 -9.4,16.8999 -1.3,7.599999 -0.9,8.399999 7.9,13.099999 5.9,3.2 12,-10.799999 15.3,-20.299999 0.383,-1.0357 0.533,-2.1433 0.438,-3.2436 -0.094,-1.1003 -0.43,-2.1662 -0.984,-3.1215 -0.555,-0.9553 -1.313,-1.7764 -2.221,-2.4048 -0.908,-0.6283 -1.944,-1.0483 -3.033,-1.2301 z"
     fill="#ff78b9"
     id="path320" />
  <path
     d="m 500.41623,153.26914 c -7.656,-8.923 -16.275,-16.972 -25.7,-24 l -22.4,11.7 7.3,21.8 c 0,0 6,7.6 11.6,13.6 5.6,6 15.7,6.2 34.3,7.8 7,-12.5 3.8,-20.4 -5.1,-30.9 z"
     fill="#2835bd"
     id="path322" />
  <path
     d="m 463.91623,162.36914 2,-9.7"
     stroke="#000000"
     stroke-width="2"
     stroke-linecap="round"
     stroke-linejoin="round"
     id="path324" />
  <path
     d="m 542.51623,149.16914 c -1.8,-4.9 -7.3,-8.8 -31.9,-10 l -9.1,-9.2 -25.3,19.3 c 9,15.2 19.2,33.5 29.3,34.9 10.1,1.4 19.2,0.7 31.2,-6.6 7.6,-4.7 8.6,-6.9 8.8,-10.9 -0.153,-5.947 -1.163,-11.841 -3,-17.5 z"
     fill="#3442d9"
     id="path326" />
  <path
     d="m 569.71623,149.96914 c -5.6,21.7 -31.6,26.8 -51.5,31.4 -18,4.1 -19.2,9.5 -21.9,18.5 l -13.6,-3.6 v -14 l 17.9,-3.7 c 16,-6.6 27.3,-5.1 44.3,-13.2 17,-8.1 19.2,-14.1 21.3,-25.2 1.3,-6.5 2.3,-13.9 0.7,-19 l 5.7,0.8 c 1.5,6.8 0.2,16.4 -2.9,28 z"
     fill="#8cd9ff"
     id="path328" />
  <path
     d="m 417.51623,171.46914 c -1.326,0.803 -2.343,2.029 -2.887,3.48 -0.545,1.451 -0.584,3.043 -0.113,4.52 2.9,9.2 4.2,16.3 1.5,38.7 -2.7,22.4 -7.2,34.8 -9.3,39.4 -0.129,0.273 -0.191,0.573 -0.182,0.875 0.01,0.301 0.092,0.596 0.238,0.86 0.147,0.264 0.354,0.489 0.605,0.657 0.251,0.168 0.539,0.274 0.839,0.308 11.2,1.7 28,1.5 46.4,-0.9 3.104,-0.407 6.045,-1.631 8.522,-3.546 2.477,-1.915 4.402,-4.452 5.578,-7.354 4.73,-11.738 8.607,-23.803 11.6,-36.1 6.7,-27.6 5.9,-27.1 20.3,-33.8 -1.1,-9.9 -1,-19.4 -11.8,-20.8 -12.6,-1.6 -26.4,4.6 -46.2,10 -4.5,-4 -8.6,-6 -25.1,3.7 z"
     fill="#45aaf7"
     id="path330" />
  <path
     d="m 471.71623,159.26914 c -8.3,2 -17.7,5.4 -29.1,8.5 -3.3,-2.9 -6.4,-4.8 -14.3,-1.7 -0.293,0.748 -0.527,1.517 -0.7,2.3 -3.6,17.9 -10.4,47.2 10,45.6 20.4,-1.6 22.7,-13.7 22.1,-24.7 -0.6,-11 -1.9,-17.1 0,-20.3 1.9,-3.2 8.6,-8.8 12,-9.7 z"
     fill="#287ceb"
     id="path332" />
  <path
     d="m 490.01623,184.56914 c -1.4,-11.7 -2.3,-17.3 -5.5,-19.5 -3.2,-2.2 -4.3,-1.5 -8.5,-0.6 -4.2,0.9 -9.5,2.5 -16.3,4.5 -12.7,3.7 -28.5,8.4 -34.5,8 l -2,-0.3 c 1.4,-1.5 10,-4.6 15.7,-6.7 l 4,-1.5 c 0.094,-0.023 0.182,-0.065 0.259,-0.123 0.077,-0.059 0.141,-0.133 0.188,-0.217 0.047,-0.085 0.076,-0.178 0.085,-0.275 0.009,-0.096 -0.002,-0.193 -0.032,-0.285 l -0.8,0.2 -0.7,-0.6 -3.6,1.3 c -13.3,4.9 -17.1,6.6 -16.8,8.5 0.3,1.9 1.8,1.5 3.6,1.6 6.2,0.4 21.5,-4.1 35.1,-8.1 6.7,-2 12.5,-3.7 16.1,-4.4 3.6,-0.7 5.9,-0.7 7.3,0.3 1.4,1 3.6,8 4.9,19.8 z"
     fill="#000000"
     id="path334" />
  <path
     d="m 495.11623,39.169241 19,-13.8 -7.1,0.1 -11.4,8.3 z"
     fill="#5865f2"
     id="path336" />
  <path
     d="m 499.71623,50.869241 c 1.637,0.9545 3.505,1.439 5.4,1.4 2.389,-0.039 4.68,-0.9586 6.433,-2.5826 1.753,-1.624 2.845,-3.838 3.067,-6.2174 l 0.3,-3.6 z"
     fill="#5865f2"
     id="path338" />
  <path
     d="m 547.41623,25.069241 h -7.9 l -19.5,14.1 v 1.5 c 0.225,1.5464 0.733,3.0381 1.5,4.4 l 27.1,-19.5 c -0.337,-0.2894 -0.757,-0.4645 -1.2,-0.5 z"
     fill="#5865f2"
     id="path340" />
  <path
     d="m 548.11623,40.669141 0.6,-6.5 -22.2,16.1001 c 2.05,1.1342 4.357,1.7198 6.7,1.6999 h 2.7 c 3.046,-0.1221 5.948,-1.3274 8.185,-3.399 2.236,-2.0715 3.66,-4.8732 4.015,-7.901 z"
     fill="#5865f2"
     id="path342" />
  <path
     d="m 513.61623,53.469241 c 2.668,-0.5822 5.431,-0.5822 8.1,0"
     stroke="#000000"
     stroke-width="2"
     stroke-linecap="round"
     stroke-linejoin="round"
     id="path344" />
  <path
     d="m 429.81623,132.86914 c 0.1,0.3 0.2,0.5 0.3,0.5 0.1,0 0.2,-0.1 0.3,-0.4"
     fill="#000000"
     id="path346" />
  <path
     d="m 446.81623,128.26914 c -10.8,4.2 -25.9,13 -38.9,20.3 -7.2,4 -9.4,6.4 -5.6,13.7 3.8,7.3 11,14.3 16.4,19.1 5.4,4.8 8.4,2.8 12.4,0.2 l 28.5,-18.8 15.1,-33.5 c -6.3,-4.4 -17,-5.3 -27.9,-1 z"
     fill="#2835bd"
     id="path348" />
  <path
     d="m 416.31623,167.96914 c 4.6,0.9 4.6,1.4 10.3,-2.3 5.7,-3.7 34.4,-21 37.3,-22.9"
     stroke="#4150f2"
     stroke-width="2"
     stroke-miterlimit="10"
     stroke-linecap="round"
     id="path350" />
  <path
     d="m 488.51623,117.66914 c -4.5,-3.3 -7.6,-3.5 -31.8,-5.5 -24.2,-2 -35.5,-4.5 -38.3,-0.1 -2.8,4.4 -0.3,15.4 2.5,23.7 2.8,8.3 4.4,11 8.3,11.3 3.9,0.3 40.3,1.5 47,2.2 l 3.3,5.6 31.1,-15.7 c 0,0 -17.7,-18.2 -22.1,-21.5 z"
     fill="#3442d9"
     id="path352" />
  <path
     d="m 411.71623,161.26914 c -6,-4.9 -8.4,-5.8 -7.7,-2.5 0.7,3.3 4.5,8.2 8.6,12.6 4.1,4.4 8.8,8.9 10.4,8.6 1.6,-0.3 -0.3,-3.3 -2.8,-8.1 -2.135,-4.041 -5.02,-7.638 -8.5,-10.6 z"
     fill="#000000"
     id="path354" />
  <path
     d="m 418.31623,168.56914 -5,3.5 -4.1,2.9 c -4.9,3.6 -2.9,6.5 -2.5,9.9 0.4,3.4 -0.7,5.9 -3,5.9 -2.3,0 -5.7,-9.6 -8.1,-14.2 -2.4,-4.6 -10.3,-8.3 -14.4,-11.8 -1.7,-1.5 -2.1,-4 0,-4.8 -0.9,-1.3 -2.1,-4.6 0.9,-5.6 3,-1 7.5,4.5 10,6.2 2.5,1.7 5.6,3.3 7.9,2.3 1.581,-0.704 3.117,-1.506 4.6,-2.4 l 3.4,-2.1 3.7,2.9 c 2.511,2.133 4.73,4.587 6.6,7.3 z"
     fill="#ff78b9"
     id="path356" />
  <path
     d="m 569.71623,149.96914 c -5.6,21.7 -31.6,26.8 -51.5,31.4 -19.9,4.6 -19.3,10.6 -22.9,21.5 -3.6,10.9 -10.8,38.2 -15.8,50.6 l 66.5,-39.1 27.2,-51.6 z"
     fill="#66bcff"
     id="path358" />
  <path
     d="m 492.61623,237.76914 c -2.2,7.7 -4,13.5 -5,17.7 -1,4.2 3.6,3.8 8.5,2.4 4.9,-1.4 7,-3.5 6.2,-7.8 -0.8,-4.3 -7.3,-21 -9.7,-12.3 z"
     fill="#ffffff"
     id="path360" />
  <path
     d="m 411.71623,161.26914 -3.7,-2.9 c -0.9,-0.1 -1.4,-0.1 -1.8,0.2 -0.4,0.3 -0.3,0.5 -0.2,1 2.3,-0.4 8,3.7 8.2,11.8 1.3,0.6 2,1 2.5,0.7 0.5,-0.3 1.2,-1.7 1.6,-3.5 -1.87,-2.713 -4.089,-5.167 -6.6,-7.3 z"
     fill="#000000"
     id="path362" />
  <path
     d="m 402.91623,186.36914 c -1,-3.8 -4.4,-11.6 -7.3,-14.7 -2.9,-3.1 -7.5,-10.4 -9,-12.8 -1.5,-2.4 -5.4,-5.4 -6.3,-2.7 -0.195,1.335 0.127,2.694 0.9,3.8 -2.1,0.8 -1.7,3.3 0,4.8 4.1,3.5 11.8,6.7 14.4,11.8 2.6,5.1 4.4,12.5 7.2,14 l 0.8,0.2 c 0.5,-0.1 0.2,-1.5 -0.7,-4.4 z"
     fill="#de3a93"
     id="path364" />
  <path
     d="m 517.31623,6.3692409 c -1.267,3.5717 -1.407,7.4464001 -0.4,11.1000001 0.159,0.6427 0.534,1.2114 1.062,1.6117 0.527,0.4002 1.176,0.6078 1.838,0.5883 h 6.1 c 0.679,0.0031 1.351,-0.1378 1.972,-0.4136 0.62,-0.2759 1.175,-0.6802 1.628,-1.1864 3.7,-3.9 10.4,-4.9 15.6,-2.7 l 3.1,-4.5 c 0.332,-0.4408 0.495,-0.9864001 0.458,-1.5372001 -0.037,-0.55077 -0.27,-1.06997 -0.658,-1.4628 -3.032,-2.86534 -6.65,-5.0379 -10.604,-6.36739 -3.954,-1.32948795 -8.149,-1.78417095 -12.296,-1.33260895 -1.747,0.209866 -3.401,0.90063895 -4.778,1.99534895 -1.377,1.0947 -2.424,2.55032 -3.022,4.20465 z"
     fill="#ff8c19"
     id="path366" />
  <path
     d="m 572.41623,108.66914 c -0.4,4.7 0.4,6.3 1.5,4.4 0.773,-1.706 1.247,-3.533 1.4,-5.4 z"
     fill="#000000"
     id="path368" />
  <path
     d="m 560.41623,77.969241 c -8.6,1.1 -13.4,2.6 -17.7,4.6"
     stroke="#000000"
     stroke-width="2"
     stroke-linecap="round"
     stroke-linejoin="round"
     id="path370" />
  <path
     d="m 578.01623,83.969241 3.7,3.7"
     stroke="#000000"
     stroke-width="2"
     stroke-linecap="round"
     stroke-linejoin="round"
     id="path372" />
  <path
     d="m 556.11623,119.46914 c 0,0 -4.5,3.3 -7.4,5.7"
     stroke="#000000"
     stroke-width="2"
     stroke-linecap="round"
     stroke-linejoin="round"
     id="path374" />
  <path
     d="m 516.61623,93.669141 -0.8,11.799999 h -5.3 c 0.31,-3.873 0.912,-7.717199 1.8,-11.499999 0.198,-0.6457 0.502,-1.2539 0.9,-1.8 v 0 c 1.33,-1.6652 2.877,-3.1449 4.6,-4.3999 l 9.2,-6.9 c 2.604,-1.9198 4.586,-4.5627 5.7,-7.6 1.3,-3.4 2.9,-7.7001 3.6,-8.6001"
     stroke="#f551a0"
     stroke-width="2"
     stroke-linecap="round"
     stroke-linejoin="round"
     id="path376" />
  <path
     d="m 572.31623,77.369241 c -4.2,10.6 -8.8,28.599899 -5.3,37.199899 0.351,0.81 0.787,1.581 1.3,2.3 l 2,-0.2 c -0.757,-0.785 -1.367,-1.699 -1.8,-2.7 -3.2,-7.7 0.8,-24.299899 5,-35.299899 z"
     fill="#f551a0"
     id="path378" />
  <path
     d="m 479.71623,101.26914 c 0.4,0.472 0.872,0.877 1.4,1.2 1,-11.699899 5.8,-21.599899 13.2,-27.399899 l -2,-0.3 c -6.9,5.9 -11.5,15.4 -12.6,26.499899 z"
     fill="#f551a0"
     id="path380" />
  <path
     d="m 560.01623,118.76914 -11.1,1.3"
     stroke="#000000"
     stroke-width="2"
     stroke-linecap="round"
     stroke-linejoin="round"
     id="path382" />
  <path
     d="m 545.11623,161.16914 c -4,2.7 -12.5,6.8 -17.9,8 -1.349,0.277 -2.723,0.411 -4.1,0.4 -2.166,0.081 -4.318,-0.369 -6.27,-1.31 -1.952,-0.942 -3.644,-2.345 -4.93,-4.09 l -5.2,-7.3 c -4.5,-6.4 -10.2,-14.3 -14.3,-20 -0.1,-0.2 -0.1,-0.3 -0.2,-0.4 -6.2,-8.7 -9.5,-12.5 -14.1,-13.2 -4.6,-0.7 -17.9,-1.9 -41.2,-3.7 -5.8,-0.4 -6.7,-0.3 -7.8,2.3 -0.032,0.098 -0.085,0.188 -0.155,0.263 -0.07,0.075 -0.156,0.134 -0.251,0.172 -0.096,0.038 -0.198,0.055 -0.301,0.049 -0.103,-0.006 -0.203,-0.035 -0.293,-0.084 -0.184,-0.086 -0.333,-0.231 -0.424,-0.413 -0.091,-0.181 -0.118,-0.388 -0.076,-0.587 1.6,-3.9 4,-3.7 9.4,-3.3 13.6,1.1 36.9,2.9 41.4,3.7 4.5,0.8 9.4,5.9 15.1,13.9 0,0.1 0.1,0.2 0.2,0.3 4.1,5.7 9.7,13.7 14.3,20 l 5.2,7.4 c 2.8,3.9 7.9,5.5 13.6,4.3 5.7,-1.2 15,-6 18.1,-8.2 0.116,0.594 0.183,1.196 0.2,1.8 z"
     fill="#5865f2"
     id="path384" />
  <path
     d="m 421.51623,113.76914 c -2.9,2.7 -1.4,8 0.6,15.3 2,7.3 4.5,13.9 5.8,13.7 1.3,-0.2 2,-2.8 2.3,-6.6 0.3,-3.8 0.2,-10.6 -1.3,-15.7 -1.5,-5.1 -5.2,-8.8 -7.4,-6.7 z"
     fill="#000000"
     id="path386" />
  <path
     d="m 430.41623,132.96914 -7.4,-0.9 c -3.6,-0.5 -7.2,-0.8 -10.8,-1 -0.7,4.3 -2.2,9.8 -4.3,12 -2.1,2.2 -5.8,2.1 -6.2,-2.9 -0.4,-5 -0.1,-12.1 -3.4,-26.9 -1.2,-5.5 -3.4,-8.8 -4.2,-13 -0.8,-4.199899 1.6,-4.899899 3.8,-4.499899 -0.5,-2.8 -0.3,-6.4 3.2,-6.9 3.5,-0.5 4.9,2.5 4.9,6.4 0.519,-0.7186 1.267,-1.2389 2.122,-1.4752 0.854,-0.2363 1.763,-0.1745 2.578,0.1752 2.4,0.9 2.9,3.9 2.6,8.699899 -0.3,4.8 -0.4,9.9 1.6,11.6 2,1.7 2.5,1.1 5.3,1.5 l 6.8,0.6 c 0.811,1.277 1.45,2.656 1.9,4.1 1.034,4.085 1.538,8.286 1.5,12.5 z"
     fill="#ff78b9"
     id="path388" />
  <path
     d="m 430.41623,132.96914 c 0.038,-4.214 -0.466,-8.415 -1.5,-12.5 -0.45,-1.444 -1.089,-2.823 -1.9,-4.1 h -0.9 c 2.5,3.2 4,11.6 0,16.1 0.563,0.477 1.206,0.849 1.9,1.1 0.845,0.081 1.692,-0.13 2.4,-0.6 z"
     fill="#000000"
     id="path390" />
  <path
     d="m 410.81623,99.869141 c 0.4,-4.6999 -2.9,-6.6999 -4.8,-4.5999 0,-3.9 -1.3,-6.9 -4.9,-6.4 -3.6,0.5 -3.7,4.1 -3.2,6.9 -2.2,-0.4 -4.6,0.4 -3.8,4.499899 0.8,4.1 3,7.5 4.2,13 3.3,14.8 2.9,21 3.4,26.9 0.007,1.189 0.392,2.345 1.1,3.3 2.3,2.4 3.3,-0.5 3.2,-4.9 -0.055,-6.886 0.346,-13.767 1.2,-20.6 1,-8 3.3,-13.4 3.6,-18.099999 z"
     fill="#de3a93"
     id="path392" />
  <path
     d="m 401.51623,88.869241 c 3.1,-0.1 3.2,3.8 3.1,8.1 l 1.4,-1.7 c 0,-3.7 -1.2,-6.7 -4.5,-6.4 z"
     fill="#ff78b9"
     id="path394" />
  <path
     d="m 481.81623,138.06914 c -1.572,3.874 -3.444,7.619 -5.6,11.2 4.6,-2 6.5,-3 6.5,-3"
     stroke="#000000"
     stroke-width="2"
     stroke-linecap="round"
     stroke-linejoin="round"
     id="path396" />
  <path
     d="m 511.51623,140.06914 10.6,10.8 c 8.6,1.1 10.6,2.9 12.9,5.8"
     stroke="#000000"
     stroke-width="2"
     stroke-linecap="round"
     stroke-linejoin="round"
     id="path398" />
  <path
     d="m 522.11623,150.86914 9.7,0.3"
     stroke="#000000"
     stroke-width="2"
     stroke-linecap="round"
     stroke-linejoin="round"
     id="path400" />
  <path
     d="m 495.71623,251.96914 c -1.3,3.3 -3.5,5.5 -4.9,5 -1.4,-0.5 -1.4,-2.1 0,-5.2 0.603,-1.258 1.105,-2.562 1.5,-3.9 0.8,-2.9 2.3,-3.4 3.4,-2.9 1.1,0.5 1.4,3.6 0,7 z"
     fill="#000000"
     id="path402" />
  <path
     d="m 417.11623,207.46914 c -0.1,1.7 -0.3,3.6 -0.5,5.6 l 22.4,2.5 -23.6,7.4 c -0.5,3.4 -1,6.5 -1.5,9.4 l 15.6,1.6 c -5.3,1.9 -11.1,3.9 -17.3,6.3 -0.8,3.533 -1.6,6.533 -2.4,9 l 7.3,0.2 -8.2,2.3 c -0.601,1.981 -1.336,3.919 -2.2,5.8 -0.102,0.257 -0.169,0.526 -0.2,0.8 8.9,-2.8 17.9,-5.1 26.6,-7 8.882,1.603 17.638,3.842 26.2,6.7 2.164,-0.91 4.108,-2.274 5.7,-4 -3.4,-1.2 -8.4,-2.8 -14.5,-4.5 l -3.5,-0.9 c 8.3,-1.4 16,-2.6 23,-3.5 1.1,-2.8 2.3,-6.1 3.5,-9.7 -6.5,-1.5 -13.2,-2.7 -19.7,-3.8 9.4,-2.9 16.8,-5 23,-6.5 1,-3.4 2,-7 3,-10.8 l -13.5,-1.4 14.9,-4.6 1.6,-6.3 -30.5,9.3 z m 50.3,32.4 c -10.2,1.4 -22.1,3.2 -34.5,5.9 -4.667,-0.8 -9.567,-1.4 -14.7,-1.8 8.9,-3.3 16.7,-6.1 23.7,-8.4 8.1,1.1 16.9,2.5 25.5,4.3 z m 8.6,-20.3 c -8.5,2.1 -19.5,5.2 -34.6,10.3 -8.1,-1.1 -15.4,-1.9 -21.3,-2.5 l 32.8,-10.3 z"
     fill="#3f4eeb"
     id="path404" />
  <path
     d="m 417.51623,199.56914 c -0.1,1.9 -0.1,4 -0.3,6.4 25.6,-0.8 54.9,-3.9 65.9,-5.2 0.6,-2.6 1.2,-4.8 1.8,-6.7 -7.9,1 -39.8,4.7 -67.4,5.5 z"
     fill="#3f4eeb"
     id="path406" />
  <path
     d="m 460.81623,252.66914 4.2,1.4 c -1.592,1.726 -3.536,3.09 -5.7,4 l -4,-1.3 c 2.1,-0.966 3.974,-2.363 5.5,-4.1 z"
     fill="#000000"
     id="path408" />
  <path
     d="m 470.21623,234.76914 3.3,0.7 c -1.2,3.6 -2.4,6.9 -3.5,9.7 l -4.4,0.6 c 1.867,-3.518 3.407,-7.2 4.6,-11 z"
     fill="#000000"
     id="path410" />
  <path
     d="m 475.91623,213.96914 3.9,0.4 c -1,3.8 -2,7.4 -3,10.8 l -4,1 c 0.6,-2 1.1,-4.1 1.6,-6.2 0.1,-0.2 0.1,-0.4 0.2,-0.6 0.4,-1.8 0.9,-3.6 1.3,-5.4 z"
     fill="#000000"
     id="path412" />
  <path
     d="m 478.51623,203.36914 4.3,-1.3 -1.6,6.3 -4.3,1.3 c 0.5,-2.1 1.1,-4.2 1.6,-6.3 z"
     fill="#000000"
     id="path414" />
  <path
     d="m 484.91623,194.06914 c -0.6,1.9 -1.2,4.1 -1.8,6.7 l -4.1,0.4 1.8,-6.6 z"
     fill="#000000"
     id="path416" />
  <path
     d="m 408.91623,251.76914 5,-1.4 c -0.7,2.2 -1.4,4.3 -2.2,6.4 l -5.2,1.6 c 0.031,-0.274 0.098,-0.543 0.2,-0.8 0.864,-1.881 1.599,-3.819 2.2,-5.8 z"
     fill="#000000"
     id="path418" />
  <path
     d="m 412.21623,240.26914 4.5,-1.7 c -0.7,3.8 -1.5,7.3 -2.5,10.8 h -4.4 c 0.8,-2.533 1.6,-5.567 2.4,-9.1 z"
     fill="#000000"
     id="path420" />
  <path
     d="m 415.41623,222.96914 3.7,-1.2 c -0.4,3.9 -0.9,7.5 -1.4,11 l -3.8,-0.4 c 0.5,-2.9 1,-6 1.5,-9.4 z"
     fill="#000000"
     id="path422" />
  <path
     d="m 417.11623,207.46914 3.4,0.4 -0.6,5.5 -3.3,-0.3 c 0.2,-2 0.4,-3.9 0.5,-5.6 z"
     fill="#000000"
     id="path424" />
  <path
     d="m 421.31623,199.46914 -0.6,6.4 h -3.5 c 0.2,-2.4 0.2,-4.5 0.3,-6.4 z"
     fill="#000000"
     id="path426" />
  <path
     d="m 518.71623,224.86914 0.2,8.5 c 0.006,0.441 0.129,0.872 0.355,1.25 0.227,0.378 0.55,0.69 0.935,0.903 0.386,0.213 0.822,0.321 1.262,0.311 0.441,-0.009 0.871,-0.135 1.248,-0.364 0.451,-0.295 0.799,-0.723 0.996,-1.225 0.197,-0.501 0.233,-1.052 0.104,-1.575 l -2.9,-10 z"
     fill="#ffffff"
     id="path428" />
  <path
     d="m 504.11623,199.26914 c 8,2.5 9.6,11 11.3,25.4 0.034,0.354 0.163,0.693 0.372,0.981 0.209,0.289 0.491,0.516 0.817,0.658 0.326,0.143 0.684,0.196 1.038,0.154 0.353,-0.042 0.689,-0.178 0.973,-0.393 l 2.8,-2.1 c 0.733,-0.524 1.308,-1.24 1.661,-2.069 0.353,-0.829 0.47,-1.739 0.339,-2.631 -0.3,-1.8 -0.8,-4.6 -1.3,-8.4 -1.2,-7.4 -6.1,-16.4 -15.5,-17.5 -0.51,-0.051 -1.023,0.056 -1.471,0.306 -0.447,0.251 -0.806,0.633 -1.029,1.094 -0.478,1.139 -0.716,2.365 -0.7,3.6 0.011,0.204 0.084,0.399 0.209,0.56 0.125,0.16 0.296,0.279 0.491,0.34 z"
     fill="#3f4eeb"
     id="path430" />
</svg>
